<?xml version="1.0" standalone="no"?>
<!DOCTYPE svg PUBLIC "-//W3C//DTD SVG 20010904//EN"
 "http://www.w3.org/TR/2001/REC-SVG-20010904/DTD/svg10.dtd">
<svg version="1.0" xmlns="http://www.w3.org/2000/svg"
 width="150.000000pt" height="150.000000pt" viewBox="0 0 150.000000 150.000000"
 preserveAspectRatio="xMidYMid meet">
<metadata>
Created by potrace 1.11, written by Peter Selinger 2001-2013
</metadata>
<g transform="translate(0.000000,150.000000) scale(0.100000,-0.100000)"
fill="#000000" stroke="none">
<path d="M140 1148 c-19 -5 -53 -8 -77 -6 -24 2 -44 -1 -46 -7 -6 -18 -10
-138 -8 -210 1 -38 2 -107 2 -152 0 -57 4 -84 12 -85 7 -1 210 -2 452 -3 242
-1 565 -3 718 -5 153 -1 281 1 284 4 3 3 4 18 3 33 -4 45 -2 241 4 330 l5 83
-32 8 c-17 4 -310 9 -650 10 -341 1 -622 4 -626 6 -3 2 -22 -1 -41 -6z"/>
<path d="M53 588 c-23 -38 -10 -78 25 -77 27 0 27 0 5 11 -26 13 -32 58 -8 58
8 0 15 5 15 10 0 14 -27 12 -37 -2z"/>
<path d="M116 584 c-32 -31 -5 -94 32 -75 9 4 22 7 28 4 20 -7 66 16 58 29 -4
8 -3 10 2 5 5 -5 9 -14 9 -19 0 -6 5 -13 12 -15 8 -3 9 6 4 29 -4 18 -8 37 -9
41 -1 21 -12 18 -21 -7 -10 -24 -23 -36 -20 -18 4 24 -3 43 -13 39 -13 -4 -15
-10 -17 -55 0 -13 -5 -21 -10 -17 -6 3 -8 15 -6 27 4 21 -10 48 -26 48 -4 0
-15 -7 -23 -16z m30 -34 c0 -16 -4 -30 -9 -30 -12 0 -20 28 -13 45 10 26 24
16 22 -15z m59 -9 c3 -5 2 -12 -3 -15 -5 -3 -9 1 -9 9 0 17 3 19 12 6z"/>
<path d="M279 593 c-7 -65 -6 -74 10 -82 10 -6 23 -6 31 -1 8 5 18 6 22 3 5
-2 16 1 25 9 13 10 17 10 20 1 3 -7 11 -13 19 -13 10 0 11 6 4 24 -5 13 -6 27
-3 30 4 3 2 6 -4 6 -6 0 -14 -7 -17 -16 -4 -9 -9 -14 -13 -10 -3 3 1 14 11 25
15 17 15 19 1 25 -15 5 -35 -27 -35 -55 0 -6 -5 -7 -10 -4 -6 4 -10 14 -8 23
1 10 -1 23 -5 30 -9 13 -46 17 -48 5z m41 -17 c0 -11 -19 -15 -25 -6 -3 5 1
10 9 10 9 0 16 -2 16 -4z m-6 -47 c-3 -5 -10 -7 -15 -3 -5 3 -7 10 -3 15 3 5
10 7 15 3 5 -3 7 -10 3 -15z"/>
<path d="M410 588 c0 -4 6 -8 13 -8 9 0 12 -11 9 -35 -3 -23 0 -35 8 -35 7 0
10 12 8 33 -2 23 1 32 12 32 10 0 15 -10 15 -27 1 -31 4 -35 25 -38 27 -4 41
0 35 10 -3 5 -12 7 -19 4 -8 -3 -17 -1 -21 5 -3 6 4 15 16 19 l23 9 -25 7 -24
7 25 11 c21 9 22 12 7 15 -10 3 -24 -1 -32 -7 -10 -8 -15 -9 -15 -2 0 6 -13
10 -30 10 -16 -1 -30 -5 -30 -10z"/>
<path d="M546 563 c2 -56 3 -59 13 -44 6 9 11 10 15 2 16 -25 33 -10 32 28 -1
41 -16 71 -16 32 0 -12 -4 -19 -10 -16 -6 4 -8 10 -5 15 4 6 -16 20 -29 20 -1
0 -1 -17 0 -37z"/>
<path d="M624 555 c-1 -26 4 -45 10 -46 24 -3 41 4 53 19 11 16 12 16 13 0 0
-21 20 -28 43 -16 24 13 24 74 -2 81 -25 6 -51 -10 -45 -28 4 -8 1 -15 -6 -15
-6 0 -9 4 -5 9 7 13 -22 41 -43 41 -13 0 -17 -10 -18 -45z m41 -5 c0 -35 -20
-35 -21 0 -1 19 3 29 10 27 6 -2 11 -14 11 -27z m80 2 c2 -21 -4 -26 -22 -19
-9 2 -12 27 -5 40 7 15 25 1 27 -21z"/>
<path d="M799 595 c-4 -2 -5 -65 0 -72 9 -15 40 -23 46 -13 3 5 -4 11 -15 15
-27 9 -25 25 3 25 22 1 22 1 -3 15 l-25 14 23 1 c13 0 21 4 17 9 -4 7 -37 12
-46 6z"/>
<path d="M887 594 c-3 -4 0 -22 8 -40 14 -33 15 -38 15 -50 0 -3 7 1 15 10 9
8 17 29 18 46 3 41 21 32 21 -11 1 -35 18 -51 45 -41 10 4 8 8 -7 13 -12 5
-22 13 -22 19 0 6 4 9 9 5 5 -3 12 -1 15 4 3 5 -2 12 -12 16 -15 6 -14 8 8 20
24 14 24 14 -19 13 -34 -1 -45 -6 -49 -20 -5 -19 -27 -20 -27 0 0 14 -10 23
-18 16z"/>
<path d="M1029 590 c-1 -14 -1 -57 0 -72 1 -9 4 -9 10 2 6 8 7 19 4 25 -4 5
-2 6 3 2 5 -5 9 -14 9 -20 0 -7 8 -13 18 -15 14 -3 17 4 17 42 0 25 -4 46 -10
46 -5 0 -9 -3 -9 -7 1 -5 0 -17 -1 -28 -1 -16 -3 -15 -12 8 -9 26 -27 37 -29
17z"/>
<path d="M1111 582 c-5 -10 -8 -27 -6 -38 2 -10 4 -22 4 -26 1 -9 111 -15 111
-5 0 4 -7 7 -15 7 -21 0 -19 28 3 33 16 4 16 5 0 6 -10 0 -18 4 -18 7 0 4 8
13 18 20 15 12 14 13 -10 14 -26 0 -28 -3 -28 -40 0 -35 -2 -39 -22 -37 -26 4
-39 57 -13 57 8 0 15 5 15 10 0 17 -29 11 -39 -8z"/>
<path d="M1239 597 c-1 -1 -2 -21 -3 -44 -1 -29 2 -43 11 -43 7 0 10 6 7 14
-3 8 0 17 6 21 6 3 10 3 9 -2 -3 -20 2 -33 14 -33 8 0 13 16 14 45 1 27 -2 43
-8 40 -5 -4 -7 -10 -4 -15 3 -5 1 -11 -5 -15 -5 -3 -10 0 -10 8 0 12 -26 32
-31 24z"/>
<path d="M1319 597 c-1 -1 -3 -21 -5 -44 -4 -48 13 -62 46 -35 27 22 15 73
-18 79 -12 1 -22 2 -23 0z m34 -29 c5 -17 -3 -48 -13 -48 -4 0 -7 14 -8 30 -1
30 13 41 21 18z"/>
<path d="M1393 588 c-5 -7 -8 -19 -7 -25 1 -7 2 -22 3 -34 1 -16 7 -20 29 -17
21 2 28 9 30 31 5 45 -32 75 -55 45z m42 -35 c2 -12 -3 -24 -11 -27 -8 -3 -15
1 -15 9 -1 8 -2 21 -3 28 -6 37 21 28 29 -10z"/>
<path d="M410 472 c0 -4 9 -8 20 -9 11 -1 18 2 15 8 -7 11 -35 12 -35 1z"/>
<path d="M243 438 c-13 -22 -13 -44 2 -64 27 -36 66 16 48 63 -7 17 -40 17
-50 1z m37 -34 c0 -16 -5 -24 -12 -21 -12 3 -13 13 -9 48 2 21 21 -3 21 -27z"/>
<path d="M345 440 c-12 -20 -14 -54 -4 -67 14 -16 66 -17 71 -1 3 8 11 9 24 3
10 -5 29 -10 40 -11 18 -2 21 2 17 19 -4 21 -4 21 16 -3 18 -21 22 -23 31 -10
6 10 6 16 0 18 -6 2 -7 14 -4 27 3 12 1 26 -5 29 -7 5 -11 -2 -12 -16 l0 -23
-9 23 c-15 36 -37 28 -35 -14 2 -47 -12 -54 -21 -9 -3 19 -11 38 -17 42 -13 8
-37 -25 -31 -41 3 -7 -2 -19 -11 -26 -12 -10 -18 -10 -30 0 -21 18 -19 36 7
54 l22 16 -21 0 c-12 0 -25 -4 -28 -10z"/>
<path d="M554 428 c-8 -27 14 -68 38 -68 11 0 16 5 13 10 -3 6 -13 10 -21 10
-11 0 -14 8 -12 28 2 19 9 27 23 27 19 0 21 -4 24 -52 1 -18 7 -23 29 -23 l27
0 -25 20 -25 20 24 0 c22 0 22 13 0 16 -22 3 -23 5 -9 14 32 21 47 12 44 -25
-3 -41 11 -56 22 -23 l7 23 8 -23 c5 -12 13 -22 19 -22 6 0 8 5 3 12 -4 7 -7
26 -8 43 l0 30 -87 2 c-80 2 -88 0 -94 -19z m163 -10 c-3 -8 -6 -5 -6 6 -1 11
2 17 5 13 3 -3 4 -12 1 -19z"/>
<path d="M783 409 c1 -21 7 -39 11 -39 15 0 14 69 -1 74 -9 4 -12 -5 -10 -35z"/>
<path d="M824 420 c2 -16 0 -30 -5 -30 -4 0 -6 -7 -2 -16 6 -16 7 -16 18 0 15
20 25 21 25 1 0 -8 6 -15 13 -15 8 0 12 14 12 40 0 22 -5 40 -10 39 -6 0 -9
-8 -8 -17 2 -11 -2 -9 -9 6 -17 34 -40 29 -34 -8z"/>
<path d="M900 404 c0 -27 4 -43 10 -39 6 3 10 13 10 21 0 8 6 14 13 14 21 0
28 -12 16 -27 -14 -16 -5 -17 22 -2 15 7 24 7 35 -2 12 -10 14 -8 11 12 -3 18
-10 24 -28 22 -15 -1 -17 0 -6 3 22 7 23 44 1 44 -10 0 -14 -5 -10 -16 3 -8 2
-12 -4 -9 -6 3 -10 -1 -10 -11 0 -12 -3 -14 -12 -6 -7 6 -16 11 -20 11 -5 1
-11 1 -15 2 -5 0 6 7 22 14 l30 14 -32 1 c-32 0 -33 -1 -33 -46z"/>
<path d="M1028 405 c2 -25 9 -45 14 -45 6 0 8 7 4 15 -7 20 11 19 22 -1 14
-26 29 -8 27 31 -2 19 1 35 5 35 15 0 27 -25 25 -52 -1 -16 2 -28 7 -28 9 0
11 13 8 48 -1 12 3 22 9 22 6 0 14 1 18 3 5 1 7 -15 6 -35 -1 -29 2 -35 13
-31 9 3 13 12 10 20 -3 8 -6 26 -6 39 0 22 -3 24 -55 24 -48 0 -57 -3 -65 -22
l-9 -23 0 23 c-1 14 -7 22 -19 22 -14 0 -17 -7 -14 -45z"/>
<path d="M1212 405 c0 -37 3 -45 18 -45 10 0 22 5 25 10 3 6 -1 10 -9 10 -12
0 -16 10 -16 35 0 19 -4 35 -9 35 -5 0 -9 -20 -9 -45z"/>
</g>
</svg>
